<svg width="1440" height="1024" viewBox="0 0 1440 1024" fill="none" xmlns="http://www.w3.org/2000/svg">
<g clip-path="url(#clip0_6_19)">
<rect width="1440" height="1024" fill="white"/>
<rect width="1440" height="1024" fill="white"/>
<path d="M0 711C0 711 258.5 642 360 711C461.5 780 488.5 743.5 540 711C591.5 678.5 662 613.5 720 711C778 808.5 818.5 631 900 711C981.5 791 883.5 813 1080 711C1276.5 609 1440 711 1440 711V1024H0V711Z" fill="#B28127"/>
<path d="M0 800C0 800 189 911 360 800C531 689 488.5 984.5 720 800C951.5 615.5 898.5 618.5 1080 800C1261.5 981.5 1440 800 1440 800V1024H0V800Z" fill="#EBC36C"/>
<path d="M0 912C0 912 59 800 360 912C661 1024 604.5 791 720 912C835.5 1033 972.5 1109 1080 912C1187.5 715 1440 912 1440 912V1024H0V912Z" fill="#D7B27F"/>
</g>
<defs>
<clipPath id="clip0_6_19">
<rect width="1440" height="1024" fill="white"/>
</clipPath>
</defs>
</svg>
