<svg width="1440" height="1024" viewBox="0 0 1440 1024" fill="none" xmlns="http://www.w3.org/2000/svg">
<g clip-path="url(#clip0_6_21)">
<rect width="1440" height="1024" fill="white"/>
<path d="M-0.5 6.5H1439.5V1030.5H-0.5V6.5Z" fill="white"/>
<path d="M1440 159.5C1440 159.5 1304 304.5 1047 181C790 57.5001 805.5 168 754 200.5C702.5 233 555 144 540 159.5C525 175 570.5 274 540 313C509.5 352 522.5 235 360 313C197.5 391 -1.14748e-05 200.5 -1.14748e-05 200.5L-2.90031e-05 0.000125889L1440 0L1440 159.5Z" fill="#B28127"/>
<path d="M1440 107.907C1440 107.907 1458.5 248.744 1080 107.907C701.5 -32.9303 923 144 720 107.907C517 71.8139 557 -4.09309 360 107.907C163 219.907 5.47217e-06 107.907 5.47217e-06 107.907L1.52635e-05 -4.0931L1440 -4.09297L1440 107.907Z" fill="#D7B27F"/>
</g>
<defs>
<clipPath id="clip0_6_21">
<rect width="1440" height="1024" fill="white"/>
</clipPath>
</defs>
</svg>
