<svg width="1440" height="1024" viewBox="0 0 1440 1024" fill="none" xmlns="http://www.w3.org/2000/svg">
<g clip-path="url(#clip0_1_2)">
<rect width="1440" height="1024" fill="white"/>
<rect width="1440" height="1024" fill="#C7E7FF"/>
<path d="M287.72 780.412C287.367 780.652 286.999 780.49 286.615 779.925C286.279 779.431 286.047 778.712 285.92 777.766C285.793 776.821 285.868 775.944 286.145 775.137C286.469 774.4 286.805 773.604 287.152 772.749C287.477 772.012 287.825 771.311 288.198 770.645C288.031 770.552 287.828 770.329 287.588 769.976C287.204 769.411 287.189 769.009 287.542 768.769C287.753 768.625 288.239 768.656 288.998 768.862C292.438 762.085 296.289 756.215 300.551 751.253L300.335 750.935C298.992 748.96 297.215 747.485 295.005 746.511C292.865 745.49 290.419 744.625 287.667 743.916C284.915 743.208 282.008 742.347 278.945 741.334C275.953 740.273 272.911 738.834 269.817 737.016C266.746 735.08 263.786 732.397 260.938 728.968C260.58 728.593 260.256 728.193 259.969 727.77C259.681 727.346 259.393 726.923 259.105 726.5C256.034 721.984 254.273 717.195 253.824 712.134C253.375 707.074 253.886 702.134 255.356 697.316C256.849 692.379 258.997 687.874 261.8 683.801C264.018 680.538 267.068 677.587 270.949 674.948C272.36 673.988 273.772 673.182 275.187 672.53C279.406 670.692 282.857 670.151 285.538 670.908C288.22 671.664 290.16 672.924 291.36 674.688C292.272 676.029 292.735 677.468 292.749 679.007C292.763 680.545 292.629 681.41 292.347 681.602C292.135 681.746 291.933 681.677 291.741 681.395C291.645 681.254 291.537 681.018 291.415 680.688C291.317 680.239 291.182 679.814 291.013 679.413C290.841 678.705 290.646 678.115 290.429 677.644C290.211 677.172 289.959 676.725 289.671 676.301C288.135 674.043 285.949 673.105 283.112 673.486C280.298 673.749 277.727 674.672 275.398 676.256C275.116 676.448 274.799 676.663 274.446 676.903C274.093 677.143 273.764 677.419 273.459 677.729C269.446 681.387 266.351 685.865 264.175 691.164C261.999 696.462 260.975 702.163 261.102 708.269C261.252 714.255 262.751 720.253 265.6 726.262C265.865 726.804 266.13 727.346 266.396 727.888C266.731 728.382 267.043 728.841 267.331 729.264C269.587 732.58 272.356 735.135 275.639 736.927C278.873 738.648 282.235 740.026 285.724 741.059C289.283 742.044 292.689 743.03 295.94 744.018C299.144 744.935 301.783 746.236 303.858 747.921C305.077 746.679 306.333 745.567 307.626 744.584C308.918 743.602 310.224 742.714 311.542 741.921C312.626 741.39 313.312 741.337 313.6 741.76C313.888 742.183 313.326 742.875 311.915 743.835C310.927 744.507 309.881 745.321 308.777 746.278C307.626 747.164 306.5 748.24 305.399 749.504C305.614 749.668 305.793 749.856 305.937 750.067C306.081 750.279 306.201 750.455 306.297 750.596C306.777 751.302 307.175 752.115 307.491 753.035C308.493 756.481 308.25 759.691 306.763 762.663C305.276 765.635 303.297 767.961 300.827 769.641C298.428 771.272 296.081 772.146 293.787 772.262C293.03 772.363 292.237 772.335 291.407 772.177C290.826 773.295 290.292 774.483 289.807 775.742C289.251 777.049 288.73 778.332 288.245 779.591C288.107 779.995 287.932 780.268 287.72 780.412ZM298.579 768.383C300.625 766.992 302.181 764.954 303.245 762.269C304.357 759.656 303.987 756.76 302.135 753.582C298.582 758.372 295.319 763.893 292.347 770.145C294.244 770.506 296.321 769.919 298.579 768.383ZM317.212 747.972C316.083 748.74 314.723 748.788 313.131 748.116C311.894 747.512 310.82 746.54 309.909 745.199C308.613 743.294 307.573 740.854 306.788 737.879C306.003 734.904 305.548 731.807 305.424 728.59C305.37 725.324 305.698 722.315 306.406 719.563C307.137 716.693 308.359 714.468 310.072 712.89C310.73 712.34 311.696 711.94 312.972 711.692C314.248 711.444 315.419 711.421 316.486 711.624C316.148 710.823 315.798 710.08 315.436 709.397C315.027 708.644 314.606 707.949 314.174 707.314C312.831 705.338 311.314 703.79 309.623 702.67C307.932 701.549 306.107 701.294 304.148 701.904C303.369 702.124 302.592 702.498 301.816 703.026C301.392 703.314 300.982 703.696 300.584 704.173C300.138 704.58 299.752 705.151 299.428 705.888C299.055 706.554 298.803 707.397 298.67 708.416C298.489 709.364 298.461 710.157 298.586 710.795C298.636 711.173 298.715 712.048 298.823 713.42C298.882 714.721 298.711 715.457 298.311 715.626C297.98 715.747 297.671 715.596 297.383 715.173C297.239 714.961 297.094 714.596 296.947 714.076C296.459 712.448 296.502 710.767 297.078 709.034C297.606 707.23 298.383 705.566 299.411 704.042C300.39 702.447 301.314 701.303 302.184 700.608C302.395 700.464 302.607 700.32 302.819 700.176C302.983 699.962 303.135 699.807 303.276 699.711C304.405 698.943 305.548 698.423 306.705 698.152C307.885 697.763 308.925 697.623 309.826 697.733C311.223 697.815 312.588 698.228 313.92 698.973C315.204 699.648 316.398 700.797 317.502 702.42C317.838 702.914 318.163 703.467 318.476 704.079C318.789 704.692 319.067 705.328 319.31 705.989C319.866 707.262 320.568 708.9 321.415 710.904C322.284 712.79 323.166 714.77 324.061 716.844C325.026 718.871 325.931 720.732 326.775 722.428C327.642 724.006 328.291 725.113 328.723 725.748C329.203 726.453 329.966 727.121 331.014 727.75C332.083 728.261 333.006 728.252 333.782 727.725C334.206 727.437 334.521 726.913 334.727 726.154C335.003 725.347 335.088 724.257 334.98 722.885C334.949 722.081 335.075 721.583 335.357 721.391C335.71 721.151 336.03 721.242 336.318 721.666C336.702 722.23 336.876 723.093 336.839 724.253C336.794 727.07 335.748 729.174 333.702 730.566C332.009 731.717 330.329 731.827 328.664 730.896C325.881 729.383 323.865 727.71 322.618 725.875C321.322 723.97 320.399 722.688 319.849 722.031C320.072 723.117 320.313 724.914 320.573 727.42C320.785 729.856 320.892 732.518 320.895 735.406C320.85 738.222 320.542 740.805 319.972 743.154C319.402 745.502 318.482 747.108 317.212 747.972ZM316.746 743.645C317.452 743.165 318.023 742.26 318.461 740.931C318.969 739.553 319.248 737.764 319.299 735.562C319.318 732.556 319.064 729.375 318.536 726.019C318.008 722.663 317.422 719.45 316.779 716.379C314.54 714.908 312.786 714.605 311.516 715.469C310.387 716.237 309.595 717.652 309.141 719.715C308.687 721.779 308.423 723.97 308.35 726.291C308.378 729.367 308.689 732.252 309.281 734.945C309.945 737.589 310.78 739.653 311.788 741.134C313.612 743.816 315.264 744.653 316.746 743.645ZM365.405 718.448C364.488 719.071 363.293 719.059 361.819 718.41C360.298 717.69 358.41 715.672 356.154 712.355C354.379 709.745 352.647 706.743 350.959 703.35C349.223 699.887 347.546 696.435 345.928 692.995C344.381 689.506 343.004 686.418 341.796 683.731C340.54 680.973 339.528 679.03 338.76 677.901C337.416 675.925 336.145 675.345 334.945 676.161C333.816 676.929 333.036 678.285 332.604 680.23C332.243 682.127 332.085 684.247 332.13 686.589C332.246 688.884 332.443 691.072 332.723 693.152C333.025 695.113 333.31 696.519 333.578 697.369C334.462 700.792 335.628 704.024 337.076 707.064C338.476 710.033 340.16 712.965 342.128 715.858C342.943 717.057 343.818 718.268 344.753 719.49C345.758 720.664 346.751 721.898 347.734 723.19C348.355 723.8 348.743 724.826 348.898 726.268C349.076 727.592 348.812 728.494 348.106 728.974C347.612 729.31 346.973 729.28 346.188 728.885C345.404 728.49 344.773 728.093 344.296 727.695C343.438 727.041 342.626 726.302 341.861 725.481C341.048 724.589 340.331 723.838 339.71 723.229C337.249 720.672 334.799 718.055 332.36 715.38C329.873 712.633 327.282 710.113 324.586 707.818C323.847 707.186 323.013 706.567 322.084 705.96C321.178 705.234 320.215 704.805 319.196 704.673C318.959 704.628 318.652 704.631 318.273 704.681C317.847 704.662 317.586 704.581 317.49 704.44C317.298 704.158 317.59 703.753 318.366 703.225C319.213 702.649 320.348 702.497 321.77 702.767C323.193 703.038 324.737 703.639 326.402 704.571C328.449 705.759 330.426 707.149 332.334 708.741C334.313 710.285 335.887 711.537 337.055 712.496C335.751 709.668 334.674 707.098 333.824 704.786C333.167 702.757 332.469 700.29 331.732 697.386C330.948 694.411 330.423 691.362 330.157 688.241C329.844 685.048 330.065 682.111 330.821 679.43C331.53 676.678 333.048 674.51 335.377 672.927C338.764 670.623 341.801 671.447 344.488 675.399C345.88 677.445 347.062 679.943 348.036 682.892C348.962 685.771 349.698 688.522 350.243 691.144C350.858 693.718 351.289 695.489 351.534 696.458C351.853 697.685 352.377 699.29 353.105 701.271C353.904 703.205 354.786 705.185 355.752 707.211C356.788 709.19 357.834 710.955 358.889 712.508C359.801 713.848 360.71 714.881 361.616 715.607C362.545 716.214 363.362 716.277 364.067 715.797C364.773 715.317 365.192 714.568 365.325 713.549C365.409 712.459 365.436 711.512 365.405 710.708C365.445 709.856 365.584 709.606 365.824 709.959C366.685 710.921 367.113 712.385 367.107 714.349C367.172 716.266 366.605 717.632 365.405 718.448ZM401.528 753.323C398.705 755.243 395.73 756.028 392.603 755.678C389.453 755.446 386.942 753.955 385.071 751.203C383.199 748.451 382.321 744.353 382.436 738.908C382.552 733.463 384.371 726.654 387.893 718.479C388.632 716.532 389.514 714.642 390.539 712.81C391.634 710.93 392.74 708.991 393.858 706.992C394.137 706.493 394.383 706.171 394.594 706.027C394.877 705.835 395.09 705.845 395.234 706.057C395.57 706.551 395.436 707.416 394.832 708.652C392.596 712.649 390.903 716.38 389.752 719.847C388.719 723.335 388.078 727.022 387.83 730.906C387.683 732.966 387.61 735.286 387.61 737.866C387.729 740.468 388 742.916 388.423 745.208C388.776 747.547 389.433 749.423 390.392 750.834C392.408 753.798 394.827 754.32 397.649 752.4C398.849 751.585 400.02 750.272 401.163 748.463C402.354 746.724 403.399 744.466 404.296 741.688C406.551 734.686 407.107 728.219 405.963 722.289C404.868 716.429 402.257 710.465 398.13 704.397C395.058 699.881 391.228 695.159 386.638 690.231C382.023 685.114 377.929 680.004 374.355 674.901C375.49 677.328 376.69 680.382 377.954 684.063C379.242 687.625 380.256 691.166 380.999 694.685C381.741 698.205 382.079 701.433 382.011 704.368C382.014 707.256 380.957 709.419 378.84 710.859C377.359 711.866 375.585 711.989 373.519 711.227C371.523 710.417 369.493 708.495 367.43 705.461C365.894 703.203 364.459 700.258 363.124 696.625C361.788 692.993 360.807 689.274 360.181 685.469C359.506 681.594 359.332 678.152 359.659 675.143C360.009 672.015 361.031 669.876 362.724 668.724C363.924 667.908 365.107 667.826 366.272 668.478C367.461 669.012 368.391 669.772 369.063 670.76C369.59 671.536 369.905 672.303 370.007 673.059C370.108 673.816 369.877 674.386 369.313 674.77C368.7 675.083 368.109 675.124 367.539 674.893C366.991 674.543 366.467 674.228 365.968 673.949C365.42 673.599 364.864 673.615 364.3 673.999C363.171 674.767 362.581 676.252 362.53 678.454C362.502 680.537 362.856 683.03 363.593 685.935C364.353 688.721 365.349 691.552 366.583 694.428C367.887 697.256 369.259 699.728 370.698 701.845C372.042 703.821 373.357 705.3 374.645 706.282C376.002 707.216 377.199 707.383 378.235 706.782C379.482 706.036 380.119 704.468 380.144 702.078C380.169 699.687 379.777 696.909 378.967 693.745C378.227 690.533 377.25 687.276 376.036 683.974C374.845 680.553 373.657 677.44 372.471 674.634C371.308 671.71 370.352 669.47 369.604 667.915C367.625 663.791 366.547 661.068 366.369 659.744C366.143 658.35 366.313 657.46 366.877 657.077C367.371 656.741 368.106 656.911 369.083 657.589C370.13 658.218 370.918 658.921 371.446 659.697C371.83 660.262 372.058 660.674 372.132 660.933C374.452 666.166 377.268 671.217 380.579 676.086C381.971 678.132 383.433 680.13 384.965 682.081C386.45 683.961 387.97 685.816 389.526 687.648C392.732 691.453 395.535 695.119 397.935 698.647C402.829 705.845 406.215 712.417 408.093 718.364C410.088 724.334 410.954 729.627 410.689 734.245C410.472 738.933 409.478 742.86 407.709 746.024C406.058 749.211 403.997 751.644 401.528 753.323ZM403.933 688.995C402.804 689.763 401.444 689.811 399.852 689.139C398.615 688.535 397.541 687.563 396.63 686.222C395.334 684.317 394.294 681.877 393.509 678.902C392.724 675.927 392.269 672.831 392.145 669.613C392.091 666.347 392.419 663.339 393.127 660.587C393.858 657.716 395.08 655.492 396.793 653.914C397.451 653.363 398.417 652.964 399.693 652.715C400.969 652.467 402.14 652.444 403.207 652.648C402.869 651.846 402.519 651.104 402.157 650.421C401.748 649.667 401.327 648.973 400.895 648.338C399.552 646.362 398.035 644.814 396.344 643.693C394.653 642.573 392.828 642.317 390.869 642.927C390.09 643.147 389.313 643.521 388.537 644.049C388.113 644.337 387.703 644.72 387.305 645.197C386.859 645.603 386.473 646.175 386.149 646.912C385.776 647.578 385.524 648.42 385.391 649.439C385.21 650.388 385.182 651.181 385.307 651.819C385.357 652.197 385.436 653.072 385.544 654.444C385.603 655.745 385.432 656.48 385.032 656.649C384.701 656.771 384.392 656.62 384.104 656.196C383.96 655.985 383.815 655.619 383.668 655.1C383.18 653.471 383.223 651.79 383.799 650.057C384.327 648.254 385.104 646.59 386.132 645.066C387.111 643.471 388.035 642.326 388.905 641.632C389.116 641.488 389.328 641.344 389.54 641.2C389.704 640.985 389.856 640.83 389.997 640.734C391.126 639.966 392.269 639.447 393.426 639.176C394.606 638.786 395.646 638.647 396.547 638.757C397.944 638.838 399.309 639.252 400.641 639.997C401.925 640.671 403.119 641.82 404.223 643.443C404.559 643.937 404.884 644.49 405.197 645.103C405.51 645.715 405.788 646.352 406.031 647.012C406.587 648.285 407.289 649.924 408.136 651.928C409.005 653.813 409.887 655.793 410.782 657.868C411.747 659.894 412.652 661.756 413.496 663.452C414.363 665.03 415.012 666.136 415.444 666.771C415.924 667.477 416.687 668.144 417.735 668.774C418.804 669.284 419.727 669.276 420.503 668.748C420.927 668.46 421.242 667.937 421.448 667.177C421.724 666.37 421.809 665.28 421.701 663.909C421.67 663.104 421.796 662.606 422.078 662.414C422.431 662.174 422.751 662.266 423.039 662.689C423.423 663.254 423.597 664.116 423.56 665.276C423.515 668.093 422.469 670.197 420.423 671.589C418.73 672.741 417.05 672.851 415.385 671.919C412.602 670.407 410.586 668.733 409.339 666.898C408.043 664.993 407.12 663.712 406.57 663.054C406.793 664.141 407.034 665.937 407.294 668.444C407.506 670.88 407.613 673.541 407.616 676.429C407.571 679.246 407.263 681.829 406.693 684.177C406.123 686.525 405.203 688.131 403.933 688.995ZM403.467 684.668C404.173 684.188 404.744 683.284 405.182 681.954C405.69 680.577 405.969 678.787 406.02 676.586C406.039 673.58 405.785 670.399 405.257 667.043C404.729 663.687 404.143 660.473 403.5 657.402C401.261 655.932 399.507 655.628 398.237 656.492C397.108 657.26 396.316 658.675 395.862 660.739C395.408 662.802 395.144 664.994 395.071 667.314C395.099 670.391 395.41 673.275 396.002 675.968C396.666 678.613 397.501 680.676 398.509 682.158C400.333 684.839 401.985 685.676 403.467 684.668ZM468.974 673.09C467.421 674.146 465.766 674.292 464.007 673.527C462.319 672.714 460.876 671.426 459.676 669.662C458.236 667.545 456.969 664.846 455.874 661.567C454.826 658.357 453.943 654.934 453.223 651.295C452.455 647.586 451.794 643.96 451.241 640.414C450.758 636.821 450.291 633.63 449.839 630.842C449.458 628.005 449.059 625.902 448.644 624.533C448.204 622.975 447.768 621.879 447.336 621.244C446.856 620.538 446.369 620.353 445.875 620.689C445.311 621.073 444.776 622.107 444.271 623.793C443.788 625.359 443.413 627.008 443.145 628.738C442.877 630.468 442.699 631.724 442.612 632.506C442.011 636.63 441.884 640.844 442.231 645.148C442.579 649.453 443.249 652.867 444.243 655.39C444.412 655.791 444.738 656.498 445.221 657.511C445.656 658.454 445.626 659.093 445.132 659.429C444.638 659.765 444.082 659.782 443.464 659.48C442.916 659.13 442.415 658.697 441.961 658.18C441.65 657.875 441.124 657.253 440.382 656.313C439.662 655.255 439.134 654.478 438.798 653.985C436.735 650.95 434.989 647.7 433.56 644.234C432.084 640.698 430.774 637.254 429.631 633.904C428.51 630.435 427.451 627.285 426.455 624.454C425.458 621.623 424.384 619.361 423.232 617.667C422.465 616.538 421.629 615.765 420.726 615.347C419.845 614.811 419.123 614.735 418.558 615.119C417.711 615.695 417.203 617.072 417.034 619.251C416.936 621.382 417.137 624.031 417.64 627.198C418.143 630.365 418.884 633.731 419.863 637.296C420.913 640.812 422.129 644.269 423.509 647.664C424.96 651.012 426.573 653.991 428.349 656.602C429.357 658.083 430.494 659.528 431.762 660.937C433.1 662.297 434.176 663.577 434.992 664.777C435.616 665.694 435.931 666.46 435.937 667.076C436.013 667.643 435.592 668.239 434.675 668.863C432.981 670.014 430.795 669.076 428.117 666.047C425.655 663.49 422.895 660.569 419.835 657.284C416.845 653.95 414.003 651.136 411.307 648.842C410.568 648.21 409.769 647.566 408.911 646.911C408.053 646.256 406.996 645.84 405.74 645.662C405.573 645.569 405.301 645.548 404.922 645.599C404.544 645.65 404.307 645.605 404.211 645.463C404.019 645.181 404.311 644.776 405.087 644.248C406.146 643.529 407.542 643.456 409.275 644.032C410.96 644.537 412.731 645.397 414.588 646.61C416.446 647.824 418.197 649.11 419.843 650.467C421.511 651.706 422.822 652.724 423.776 653.52C421.772 649.207 420.078 645.199 418.695 641.496C417.264 637.722 416.116 633.91 415.252 630.06C414.707 627.438 414.352 624.79 414.185 622.117C414.018 619.444 414.233 617.028 414.828 614.869C415.376 612.639 416.426 610.996 417.978 609.941C418.966 609.269 420.49 609.006 422.55 609.153C424.681 609.252 426.539 610.465 428.122 612.794C428.842 613.852 429.424 615.314 429.867 617.18C430.333 618.927 430.848 620.899 431.413 623.095C432.175 626.188 433.082 629.647 434.135 633.472C435.141 637.226 436.119 640.637 437.07 643.705C438.021 646.773 438.762 648.849 439.293 649.933C439.92 651.158 440.462 652.182 440.919 653.006C441.399 653.712 441.855 654.382 442.287 655.017C441.462 652.895 440.94 650.154 440.72 646.795C440.522 643.318 440.447 640.325 440.495 637.815C440.54 634.998 440.728 632.239 441.058 629.538C441.41 626.718 442.038 624.227 442.941 622.065C443.867 619.785 445.141 618.092 446.764 616.989C447.54 616.461 448.355 616.217 449.207 616.256C450.06 616.296 450.894 616.915 451.709 618.115C452.813 619.738 453.556 621.967 453.937 624.804C454.341 627.522 454.545 630.479 454.551 633.674C454.58 636.751 454.69 639.72 454.882 642.582C455.153 646.319 455.674 650.196 456.445 654.212C457.238 658.11 458.738 661.682 460.946 664.928C462.769 667.609 464.407 669.334 465.857 670.102C467.379 670.821 468.528 670.917 469.304 670.389C469.798 670.053 470.172 669.541 470.426 668.852C470.75 668.116 470.993 667.486 471.154 666.964C471.199 666.727 471.267 666.371 471.357 665.897C471.495 665.493 471.67 665.22 471.882 665.076C472.164 664.884 472.391 665.142 472.564 665.85C472.685 666.181 472.665 666.607 472.504 667.129C472.392 667.722 472.313 668.137 472.267 668.374C471.695 670.415 470.597 671.987 468.974 673.09Z" fill="white"/>
<path d="M294.617 781.449L384.143 720.565L385.223 722.153L295.697 783.037L294.617 781.449ZM404.948 706.416L457.873 670.423L458.953 672.011L406.028 708.004L404.948 706.416ZM464.44 665.957L475.336 658.547L476.416 660.134L465.519 667.545L464.44 665.957Z" fill="white"/>
</g>
<defs>
<clipPath id="clip0_1_2">
<rect width="1440" height="1024" fill="white"/>
</clipPath>
</defs>
</svg>
